<svg version="1.1" id="Layer_1" xmlns="http://www.w3.org/2000/svg" xmlns:xlink="http://www.w3.org/1999/xlink" x="0px" y="0px"
	 width="100%" viewBox="0 0 612 612" enable-background="new 0 0 612 612" xml:space="preserve">
<path fill="#121420" opacity="1.000000" stroke="none" 
	d="
M2.000000,1.000000 
	C205.620102,1.000000 409.240204,1.000000 613.000000,1.000000 
	C613.000000,102.930077 613.000000,204.860214 613.000000,306.790344 
	C613.000000,408.767029 613.000000,510.743713 613.000000,613.000000 
	C409.639893,613.000000 206.279648,613.000000 2.460397,612.540283 
	C2.000923,408.387054 2.000462,204.693527 2.000000,1.000000 
M164.440384,291.499695 
	C164.440384,302.275696 164.440384,313.051697 164.440384,323.836548 
	C175.513000,323.836548 185.945435,323.836548 196.928528,323.836548 
	C196.928528,276.696991 196.928528,229.814240 196.928528,182.896454 
	C198.124344,182.780045 198.774353,182.661453 199.424362,182.661438 
	C231.251846,182.660782 263.079498,182.623444 294.906647,182.730560 
	C299.549683,182.746170 304.215546,183.265594 308.828369,183.874069 
	C376.126984,192.751175 424.817719,257.213318 414.823883,324.135406 
	C405.500214,386.569977 353.679932,431.282471 290.529938,431.335266 
	C250.370422,431.368866 210.210861,431.344513 170.051331,431.346100 
	C168.296829,431.346161 166.542343,431.346130 164.759735,431.346130 
	C164.759735,443.022125 164.759735,453.925751 164.759735,465.093933 
	C166.243622,465.093933 167.398682,465.094025 168.553757,465.093933 
	C210.046371,465.091370 251.540253,465.262207 293.030609,464.954346 
	C302.459534,464.884369 312.003021,463.830292 321.278595,462.085358 
	C403.689209,446.581787 459.707184,368.626495 448.177277,285.841583 
	C437.198730,207.015259 371.163116,149.242172 291.518188,148.949936 
	C250.859283,148.800751 210.199448,148.905441 169.540024,148.912308 
	C167.944656,148.912582 166.349319,149.088211 164.440430,149.200592 
	C164.440430,196.570557 164.440430,243.535110 164.440384,291.499695 
M376.607910,312.147522 
	C378.737030,266.586304 348.019348,227.774429 302.867065,220.923508 
	C287.859253,218.646393 272.299988,219.971100 256.991669,219.722778 
	C250.565201,219.618546 244.135635,219.705429 237.725647,219.705429 
	C237.725647,254.856506 237.725647,289.255615 237.725647,323.544647 
	C249.032944,323.544647 259.947235,323.544647 271.345642,323.544647 
	C271.345642,299.921295 271.345642,276.690613 271.345642,253.931656 
	C280.473907,253.931656 289.219513,253.012039 297.708191,254.099030 
	C326.557373,257.793243 347.482513,286.998352 342.257935,315.402039 
	C337.220978,342.785980 315.706543,360.808716 287.852234,360.841888 
	C248.527939,360.888702 209.203568,360.854218 169.879227,360.854492 
	C168.238281,360.854523 166.597351,360.854492 164.873535,360.854492 
	C164.873535,372.256470 164.873535,383.278412 164.873535,394.344116 
	C165.966843,394.420227 166.625809,394.506073 167.284790,394.506287 
	C207.775085,394.519836 248.267471,394.746033 288.753998,394.359344 
	C297.465118,394.276154 306.592163,393.263123 314.779694,390.478973 
	C351.660187,377.938141 372.252808,351.882233 376.607910,312.147522 
z"/>
<path fill="#1E202C" opacity="1.000000" stroke="none" 
	d="
M1.500000,1.000000 
	C2.000462,204.693527 2.000923,408.387054 2.000685,612.540283 
	C1.666653,612.833374 1.056186,612.684082 1.044446,612.497192 
	C0.961003,611.169128 1.000000,609.833313 1.000000,608.500000 
	C1.000000,406.000000 1.000000,203.500000 1.500000,1.000000 
z"/>
<path fill="#FBFCFC" opacity="1.000000" stroke="none" 
	d="
M164.440399,290.999695 
	C164.440430,243.535110 164.440430,196.570557 164.440430,149.200592 
	C166.349319,149.088211 167.944656,148.912582 169.540024,148.912308 
	C210.199448,148.905441 250.859283,148.800751 291.518188,148.949936 
	C371.163116,149.242172 437.198730,207.015259 448.177277,285.841583 
	C459.707184,368.626495 403.689209,446.581787 321.278595,462.085358 
	C312.003021,463.830292 302.459534,464.884369 293.030609,464.954346 
	C251.540253,465.262207 210.046371,465.091370 168.553757,465.093933 
	C167.398682,465.094025 166.243622,465.093933 164.759735,465.093933 
	C164.759735,453.925751 164.759735,443.022125 164.759735,431.346130 
	C166.542343,431.346130 168.296829,431.346161 170.051331,431.346100 
	C210.210861,431.344513 250.370422,431.368866 290.529938,431.335266 
	C353.679932,431.282471 405.500214,386.569977 414.823883,324.135406 
	C424.817719,257.213318 376.126984,192.751175 308.828369,183.874069 
	C304.215546,183.265594 299.549683,182.746170 294.906647,182.730560 
	C263.079498,182.623444 231.251846,182.660782 199.424362,182.661438 
	C198.774353,182.661453 198.124344,182.780045 196.928528,182.896454 
	C196.928528,229.814240 196.928528,276.696991 196.928528,323.836548 
	C185.945435,323.836548 175.513000,323.836548 164.440384,323.836548 
	C164.440384,313.051697 164.440384,302.275696 164.440399,290.999695 
z"/>
<path fill="#FCFCFC" opacity="1.000000" stroke="none" 
	d="
M376.563232,312.606903 
	C372.252808,351.882233 351.660187,377.938141 314.779694,390.478973 
	C306.592163,393.263123 297.465118,394.276154 288.753998,394.359344 
	C248.267471,394.746033 207.775085,394.519836 167.284790,394.506287 
	C166.625809,394.506073 165.966843,394.420227 164.873535,394.344116 
	C164.873535,383.278412 164.873535,372.256470 164.873535,360.854492 
	C166.597351,360.854492 168.238281,360.854523 169.879227,360.854492 
	C209.203568,360.854218 248.527939,360.888702 287.852234,360.841888 
	C315.706543,360.808716 337.220978,342.785980 342.257935,315.402039 
	C347.482513,286.998352 326.557373,257.793243 297.708191,254.099030 
	C289.219513,253.012039 280.473907,253.931656 271.345642,253.931656 
	C271.345642,276.690613 271.345642,299.921295 271.345642,323.544647 
	C259.947235,323.544647 249.032944,323.544647 237.725647,323.544647 
	C237.725647,289.255615 237.725647,254.856506 237.725647,219.705429 
	C244.135635,219.705429 250.565201,219.618546 256.991669,219.722778 
	C272.299988,219.971100 287.859253,218.646393 302.867065,220.923508 
	C348.019348,227.774429 378.737030,266.586304 376.563232,312.606903 
z"/>
</svg>